<svg width="546" height="524" viewBox="0 0 546 524" fill="none" xmlns="http://www.w3.org/2000/svg">
<g clip-path="url(#clip0_93_169)">
<path d="M160.08 522.311C160.08 522.971 160.61 523.501 161.27 523.501H544.56C545.22 523.501 545.75 522.971 545.75 522.311C545.75 521.651 545.22 521.121 544.56 521.121H161.27C160.61 521.121 160.08 521.651 160.08 522.311V522.311Z" fill="#38BDF8"/>
<path d="M218.24 522.994H41.8156C20.3037 522.994 2.80225 505.492 2.80225 483.98V104.831C2.80225 83.3188 20.3037 65.8174 41.8156 65.8174H218.24C239.752 65.8174 257.253 83.3188 257.253 104.831V483.98C257.253 505.492 239.752 522.994 218.24 522.994V522.994Z" fill="#0F172A"/>
<path d="M257.253 205.281C256.343 205.281 255.603 206.021 255.603 206.931V259.746C255.603 260.656 256.343 261.396 257.253 261.396C258.164 261.396 258.904 260.656 258.904 259.746V206.931C258.904 206.021 258.164 205.281 257.253 205.281Z" fill="#0F172A"/>
<path d="M253.54 104.831V483.973C253.54 502.698 238.967 518.014 220.539 519.202H220.531C220.259 519.219 219.986 519.235 219.706 519.244C219.219 519.268 218.732 519.277 218.237 519.277C218.237 519.277 216.421 519.145 213.104 518.897C209.754 518.649 204.877 518.278 198.795 517.791C196.971 517.651 195.048 517.494 193.018 517.329C188.974 516.999 184.535 516.636 179.773 516.223C177.875 516.066 175.911 515.893 173.906 515.72C163.656 514.837 152.177 513.805 140.071 512.633C138.025 512.444 135.962 512.246 133.882 512.039C133.338 511.982 132.785 511.932 132.232 511.874C123.6 511.024 6.51611 488.397 6.51611 483.973V104.831C6.51611 85.331 22.3192 69.5278 41.8194 69.5278H62.8956C66.2626 69.5278 68.9693 72.1521 69.2582 75.5107C69.2829 75.7336 69.3077 75.9563 69.3489 76.1792C69.9596 79.5544 73.0542 81.9062 76.4871 81.9062H183.569C187.002 81.9062 190.097 79.5544 190.707 76.1792C190.749 75.9563 190.773 75.7336 190.798 75.5107C191.087 72.1521 193.794 69.5278 197.161 69.5278H218.237C237.737 69.5278 253.54 85.331 253.54 104.831V104.831Z" fill="#F8FAFC"/>
<path d="M1.97711 165.67C1.06686 165.67 0.32666 166.41 0.32666 167.32V180.524C0.32666 181.434 1.06687 182.175 1.97711 182.175C2.88735 182.175 3.62756 181.434 3.62756 180.524V167.32C3.62756 166.41 2.88735 165.67 1.97711 165.67Z" fill="#0F172A"/>
<path d="M1.97711 205.281C1.06686 205.281 0.32666 206.021 0.32666 206.931V232.513C0.32666 233.424 1.06687 234.164 1.97711 234.164C2.88735 234.164 3.62756 233.424 3.62756 232.513V206.931C3.62756 206.021 2.88735 205.281 1.97711 205.281Z" fill="#0F172A"/>
<path d="M1.97711 241.591C1.06686 241.591 0.32666 242.331 0.32666 243.241V268.823C0.32666 269.734 1.06687 270.474 1.97711 270.474C2.88735 270.474 3.62756 269.734 3.62756 268.823V243.241C3.62756 242.331 2.88735 241.591 1.97711 241.591V241.591Z" fill="#0F172A"/>
<path d="M62.3209 75.3076H30.7575C30.5862 75.3076 30.4473 75.4465 30.4473 75.6178V79.1235C30.4473 79.2949 30.5862 79.4338 30.7575 79.4338H62.3209C62.4922 79.4338 62.6311 79.2949 62.6311 79.1235V75.6178C62.6311 75.4465 62.4922 75.3076 62.3209 75.3076Z" fill="#2DD4BF"/>
<path d="M202.376 79.4337C204.199 79.4337 205.677 77.9559 205.677 76.1328C205.677 74.3098 204.199 72.8319 202.376 72.8319C200.553 72.8319 199.075 74.3098 199.075 76.1328C199.075 77.9559 200.553 79.4337 202.376 79.4337Z" fill="#E6E6E6"/>
<path d="M211.453 79.4337C213.276 79.4337 214.754 77.9559 214.754 76.1328C214.754 74.3098 213.276 72.8319 211.453 72.8319C209.63 72.8319 208.152 74.3098 208.152 76.1328C208.152 77.9559 209.63 79.4337 211.453 79.4337Z" fill="#E6E6E6"/>
<path d="M220.531 79.4337C222.354 79.4337 223.832 77.9559 223.832 76.1328C223.832 74.3098 222.354 72.8319 220.531 72.8319C218.708 72.8319 217.23 74.3098 217.23 76.1328C217.23 77.9559 218.708 79.4337 220.531 79.4337Z" fill="#E6E6E6"/>
<path d="M199.615 298.516H59.6152C57.4097 298.516 55.6152 296.721 55.6152 294.516C55.6152 292.31 57.4097 290.516 59.6152 290.516H199.615C201.821 290.516 203.615 292.31 203.615 294.516C203.615 296.721 201.821 298.516 199.615 298.516Z" fill="#34D399"/>
<path d="M130.117 453.516C162.15 453.516 188.117 427.548 188.117 395.516C188.117 363.483 162.15 337.516 130.117 337.516C98.0847 337.516 72.1172 363.483 72.1172 395.516C72.1172 427.548 98.0847 453.516 130.117 453.516Z" fill="#14B8A6"/>
<path d="M437.412 0H151.452C140.962 0 132.432 8.52997 132.432 19.02V214.98C132.432 225.47 140.962 234 151.452 234H437.412C447.902 234 456.432 225.47 456.432 214.98V19.02C456.432 8.52997 447.902 0 437.412 0Z" fill="#F8FAFC"/>
<path d="M293.117 116.516C310.79 116.516 325.117 102.189 325.117 84.5157C325.117 66.8426 310.79 52.5157 293.117 52.5157C275.444 52.5157 261.117 66.8426 261.117 84.5157C261.117 102.189 275.444 116.516 293.117 116.516Z" fill="#38BDF8"/>
<path d="M437.412 0H151.452C140.962 0 132.432 8.52997 132.432 19.02V214.98C132.432 225.47 140.962 234 151.452 234H437.412C447.902 234 456.432 225.47 456.432 214.98V19.02C456.432 8.52997 447.902 0 437.412 0ZM454.432 214.98C454.432 224.37 446.802 232 437.412 232H151.452C142.062 232 134.432 224.37 134.432 214.98V19.02C134.432 9.63001 142.062 2 151.452 2H437.412C446.802 2 454.432 9.63 454.432 19.02V214.98Z" fill="#0F172A"/>
<path d="M401.742 134.516H187.122C178.192 134.516 170.932 141.776 170.932 150.706V165.326C170.932 174.256 178.192 181.516 187.122 181.516H401.742C410.672 181.516 417.932 174.256 417.932 165.326V150.706C417.932 141.776 410.672 134.516 401.742 134.516Z" fill="#0EA5E9"/>
<path d="M73.5058 211.492L65.2759 207.593C68.6514 212.304 71.5601 219.661 73.1172 225.516C75.7538 220.062 80.004 213.39 84.211 209.404L75.5129 211.641C80.8726 185.374 101.032 166.516 124.117 166.516V164.516C100.004 164.516 78.9783 184.163 73.5058 211.492Z" fill="#0F172A"/>
<path d="M111.385 251.516H59.3853C57.1797 251.516 55.3853 249.721 55.3853 247.516C55.3853 245.31 57.1797 243.516 59.3853 243.516H111.385C113.591 243.516 115.385 245.31 115.385 247.516C115.385 249.721 113.591 251.516 111.385 251.516Z" fill="#34D399"/>
<path d="M457.306 238.488L456.781 279.327L446.62 315.732L438.497 312.702L442.103 279.333L441.629 234.176L457.306 238.488Z" fill="#FFB6B6"/>
<path d="M446.585 321.603C447.538 316.368 445.791 311.665 442.683 311.1C439.575 310.534 436.282 314.319 435.329 319.553C434.376 324.788 436.123 329.491 439.231 330.057C442.34 330.622 445.632 326.838 446.585 321.603Z" fill="#FFB6B6"/>
<path d="M444.975 189.861C444.975 189.861 462.382 190.101 462.367 199.348C462.359 204.569 461.238 251.971 458.118 280.768C455.711 302.974 451.118 308.768 451.118 308.768L440.118 283.768L444.975 189.861V189.861Z" fill="#E6E6E6"/>
<path d="M444.527 273.299H385.74C390.667 262.303 393.697 251.832 388.961 243.502L444.527 240.281C441.751 251.525 441.411 262.56 444.527 273.299Z" fill="#FFB6B6"/>
<path d="M437.28 175.856L413.926 174.245L404.262 186.325L399.363 187.216C392.019 188.551 386.79 195.105 387.118 202.562L389.023 245.874L444.844 249.945L458.218 193.543L442.111 187.13L437.28 175.856V175.856Z" fill="#E6E6E6"/>
<path d="M294.858 188.922C296.514 190.412 297.697 192.154 298.322 193.842L315.003 207.045L308.489 214.799L292.269 200.571C290.523 200.128 288.667 199.135 287.01 197.645C283.225 194.24 281.913 189.526 284.08 187.118C286.247 184.709 291.072 185.517 294.858 188.922L294.858 188.922Z" fill="#FFB6B6"/>
<path d="M412.794 200.037V200.037L348.878 243.196L303.062 211.312L309.94 198.852L346 219.809L379.255 194.274C391.097 183.151 405.939 185.307 412.794 200.037H412.794Z" fill="#E6E6E6"/>
<path d="M424.218 170.628C433.786 170.628 441.544 162.871 441.544 153.302C441.544 143.734 433.786 135.976 424.218 135.976C414.649 135.976 406.892 143.734 406.892 153.302C406.892 162.871 414.649 170.628 424.218 170.628Z" fill="#FFB6B6"/>
<path d="M447.767 149.046V152.406L428.227 146.906L413.577 149.976C413.407 147.746 412.747 145.556 411.647 143.616C412.413 146.727 412.498 149.135 411.687 150.376L409.717 150.786C409.397 149.916 408.777 149.156 407.967 148.696C407.887 148.646 407.787 148.606 407.697 148.636C407.557 148.686 407.547 148.866 407.547 149.006C407.567 149.746 407.587 150.486 407.617 151.226L401.957 152.406V149.046C396.527 136.828 410.839 126.255 424.867 126.146C431.197 126.096 436.917 128.706 441.067 132.846C445.207 136.996 447.767 142.716 447.767 149.046V149.046Z" fill="#0F172A"/>
<path d="M458.76 188.444L457.284 188.322C457.39 187.839 457.495 187.363 457.591 186.88C458.408 182.831 456.608 177.676 456.476 173.785C455.781 177.896 456.969 182.953 455.74 186.856C455.603 187.29 450.264 190.088 450.118 190.516C444.208 188.355 438.055 181.45 431.086 185.483C426.965 187.868 422.263 186.823 417.583 185.73C416.425 185.46 416.264 179.741 415.118 179.516C413.065 179.113 410.05 184.313 408.118 184.516L416.118 153.516C416.118 136.652 414.556 118.958 435.918 124.921C441.291 126.421 446.608 127.597 450.573 132.031C454.539 136.472 457.362 142.677 458.363 149.744C458.966 154.007 462.73 168.483 458.76 188.444V188.444Z" fill="#0F172A"/>
<path d="M444.965 500.18L435.428 500.405L430.112 457.561L444.186 457.228L444.965 500.18Z" fill="#FFB7B7"/>
<path d="M412.246 520.077C412.246 521.688 413.389 522.994 414.8 522.994H433.729C433.729 522.994 435.592 515.506 443.187 512.283L443.711 522.994H453.476L452.293 505.772C452.293 505.772 454.905 496.558 449.48 491.848C444.055 487.138 448.449 487.794 448.449 487.794L446.315 477.135L431.559 478.87L431.451 495.602L424.29 512.211L413.786 517.399C412.851 517.861 412.246 518.913 412.246 520.077H412.246H412.246Z" fill="#0F172A"/>
<path d="M415.951 493.198L406.784 495.836L390.77 455.743L404.298 451.85L415.951 493.198Z" fill="#FFB7B7"/>
<path d="M389.352 520.746C389.761 522.304 391.198 523.277 392.562 522.92L410.872 518.116C410.872 518.116 410.774 510.401 417.302 505.356L420.527 515.583L429.973 513.105L424.458 496.747C424.458 496.747 424.647 487.172 418.204 483.993C411.762 480.814 416.178 480.333 416.178 480.333L411.409 470.565L397.576 475.988L401.717 492.2L399.005 510.081L390.162 517.765C389.375 518.449 389.057 519.621 389.352 520.746L389.352 520.746L389.352 520.746Z" fill="#0F172A"/>
<path d="M439.118 270.768L445.118 272.768C454.499 290.094 458.476 313.101 457.949 340.846L447.291 465.457H429.854L417.094 326.635L394.594 378.74L411.056 465.457L394.594 467.136L361.437 376.964L384.528 272.162L439.118 270.768V270.768Z" fill="#0F172A"/>
</g>
<defs>
<clipPath id="clip0_93_169">
<rect width="545.563" height="523.501" fill="white" transform="translate(0.32666)"/>
</clipPath>
</defs>
</svg>
