<svg width="887" height="655" viewBox="0 0 887 655" fill="none" xmlns="http://www.w3.org/2000/svg">
<g clip-path="url(#clip0_93_168)">
<path d="M378.587 443.685C378.587 443.685 496.25 429.565 537.432 407.209C578.613 384.854 884.536 374.264 884.536 443.685C884.536 513.106 532.725 543.698 532.725 543.698L347.995 533.109L378.587 443.685Z" fill="#FBBEBE"/>
<path opacity="0.1" d="M378.587 443.685C378.587 443.685 496.25 429.565 537.432 407.209C578.613 384.854 884.536 374.264 884.536 443.685C884.536 513.106 532.725 543.698 532.725 543.698L347.995 533.109L378.587 443.685Z" fill="black"/>
<path d="M412.709 430.742L388 502.516L0.889648 507.223V401.326C0.889648 401.326 149.145 367.204 266.807 440.155C266.807 440.155 405.649 423.682 412.709 430.742Z" fill="#60A5FA"/>
<path opacity="0.1" d="M412.709 430.626L388 502.401L0.889648 507.107V401.211C0.889648 401.211 149.145 367.089 266.807 440.039C266.807 440.039 405.649 423.567 412.709 430.626Z" fill="black"/>
<path d="M855.294 400.738C855.294 404.748 846.301 407.725 845.417 411.594C844.54 415.431 849.883 421.265 848.192 424.93C846.444 428.677 844.38 432.267 842.02 435.662C839.805 438.834 832.963 438.371 830.158 441.345C827.411 444.046 824.502 446.576 821.446 448.921C818.469 451.397 814.436 451.916 811.051 454.195C807.832 456.362 808.222 464.311 804.661 466.284C801.259 468.17 796.051 466.653 792.361 468.348C788.819 469.975 786.951 475.859 783.164 477.298C779.511 478.685 774.991 478.088 771.13 479.29C767.393 480.453 763.212 480.264 759.296 481.244C755.493 482.195 752.589 487.895 748.634 488.663C744.78 489.412 740.263 487.415 736.278 487.982C732.386 488.536 727.86 483.61 723.857 483.983C719.939 484.348 716.246 486.628 712.233 486.812C708.298 486.993 704.408 488.726 700.394 488.726C696.381 488.726 692.239 492.491 688.305 492.311C684.292 492.126 680.659 486.419 676.741 486.055C672.737 485.682 667.962 491.643 664.07 491.089C660.085 490.522 656.928 484.687 653.074 483.938C649.118 483.17 644.008 487.34 640.204 486.389C636.288 485.409 633.963 478.621 630.226 477.457C626.365 476.256 621.579 477.884 617.927 476.496C614.139 475.057 609.525 475.288 605.982 473.661C602.292 471.966 599.643 467.955 596.241 466.069C592.681 464.096 591.039 459.202 587.82 457.035C584.435 454.755 579.277 455.046 576.3 452.57C573.157 449.956 567.269 449.82 564.616 447.008C561.811 444.033 560.676 439.039 558.461 435.867C556.128 432.527 560.706 425.465 559.078 421.934C557.388 418.27 550.322 416.782 549.446 412.945C548.541 408.939 548.077 404.845 548.062 400.738C548.062 396.728 554.104 393.663 554.989 389.795C555.866 385.958 551.418 380.447 553.109 376.783C554.738 373.252 554.529 367.824 556.863 364.483C559.078 361.312 564.605 360.068 567.411 357.094C570.063 354.282 574.81 353.498 577.953 350.884C580.93 348.409 580.551 340.943 583.936 338.664C587.154 336.497 591.648 335.508 595.208 333.535C598.611 331.649 603.425 331.967 607.115 330.272C610.658 328.645 616.206 331.851 619.993 330.412C623.645 329.024 626.607 325.991 630.469 324.789C634.206 323.626 635.962 314.754 639.877 313.775C643.68 312.824 648.359 314.403 652.314 313.634C656.168 312.885 661.354 319.885 665.339 319.318C669.231 318.764 672.141 309.42 676.145 309.047C680.063 308.682 684.481 313.522 688.494 313.338C692.429 313.157 696.38 315.993 700.394 315.993C704.407 315.993 708.406 312.101 712.34 312.281C716.353 312.466 719.891 317.609 723.81 317.973C727.813 318.346 732.728 310.524 736.62 311.077C740.605 311.645 743.685 317.692 747.539 318.44C751.495 319.209 756.451 315.455 760.254 316.406C764.171 317.385 766.527 323.813 770.264 324.976C774.125 326.178 776.504 330.712 780.156 332.1C783.944 333.539 790.979 326.806 794.522 328.433C798.213 330.128 801.4 333.061 804.802 334.947C808.363 336.92 814.023 335.928 817.241 338.095C820.627 340.374 821.459 346.493 824.436 348.969C827.579 351.583 832.763 352.37 835.416 355.182C838.221 358.156 838.611 363.486 840.825 366.658C843.158 369.998 843.085 374.626 844.714 378.157C846.403 381.821 850.915 384.592 851.792 388.428C852.676 392.296 855.294 396.729 855.294 400.738Z" fill="#0F172A"/>
<path d="M431.535 474.277C431.535 474.277 564.494 406.033 650.388 431.919C736.281 457.804 856.297 413.093 870.417 428.389C884.536 443.685 904.539 608.413 735.105 617.826C565.67 627.239 420.945 589.587 420.945 589.587L431.535 474.277Z" fill="#FBBEBE"/>
<path d="M400.224 467.009C400.224 467.009 452.714 463.688 450.361 482.514C448.008 501.34 445.655 647.241 431.535 650.771C417.416 654.301 305.636 654.301 259.748 654.301H0.889648V428.727C0.889648 428.727 184.443 417.799 276.22 463.688C276.22 463.688 386.562 462.095 400.224 467.009Z" fill="#60A5FA"/>
<path d="M646.129 114.179C641.114 114.463 636.276 116.137 632.159 119.016C628.042 121.895 624.808 125.863 622.82 130.477C616.992 144.565 624.496 161.115 635.762 171.388C647.028 181.662 661.499 187.534 674.648 195.253C692.308 205.621 708.178 220.013 717.014 238.487C725.851 256.961 726.791 279.845 716.404 297.495C706.763 313.876 689.232 323.68 672.513 332.722" stroke="#3F3D56" stroke-miterlimit="10"/>
<path d="M693.194 28.2855C688.179 28.5688 683.341 30.2437 679.224 33.1223C675.107 36.0009 671.873 39.9694 669.885 44.5829C664.057 58.6716 671.561 75.2209 682.827 85.4946C694.093 95.7682 708.564 101.641 721.712 109.359C739.373 119.727 755.243 134.119 764.079 152.593C772.916 171.067 773.856 193.952 763.469 211.601C753.828 227.982 736.297 237.787 719.578 246.829" stroke="#3F3D56" stroke-miterlimit="10"/>
<path d="M847.94 48.0405C843.801 45.1941 838.95 43.557 833.933 43.3129C828.915 43.0687 823.929 44.227 819.532 46.6581C806.299 54.2303 802.102 71.9103 804.721 86.9304C807.339 101.951 815.187 115.453 820.859 129.606C828.477 148.615 832.215 169.71 827.893 189.727C823.57 209.745 810.304 228.415 791.287 236.012C773.635 243.064 753.771 240.084 735.016 236.999" stroke="#3F3D56" stroke-miterlimit="10"/>
<path d="M711.572 225.606C727.168 225.606 739.811 219.465 739.811 211.889C739.811 204.314 727.168 198.173 711.572 198.173C695.976 198.173 683.333 204.314 683.333 211.889C683.333 219.465 695.976 225.606 711.572 225.606Z" fill="#14B8A6"/>
<path d="M708.042 223.252C723.638 223.252 736.281 217.111 736.281 209.536C736.281 201.961 723.638 195.82 708.042 195.82C692.446 195.82 679.803 201.961 679.803 209.536C679.803 217.111 692.446 223.252 708.042 223.252Z" stroke="#3F3D56" stroke-miterlimit="10"/>
<path d="M772.757 213.839C788.353 213.839 800.996 207.698 800.996 200.123C800.996 192.548 788.353 186.407 772.757 186.407C757.161 186.407 744.518 192.548 744.518 200.123C744.518 207.698 757.161 213.839 772.757 213.839Z" fill="#14B8A6"/>
<path d="M769.227 211.486C784.823 211.486 797.466 205.345 797.466 197.77C797.466 190.195 784.823 184.054 769.227 184.054C753.631 184.054 740.988 190.195 740.988 197.77C740.988 205.345 753.631 211.486 769.227 211.486Z" stroke="#3F3D56" stroke-miterlimit="10"/>
<path d="M782.17 265.611C797.766 265.611 810.409 259.47 810.409 251.895C810.409 244.32 797.766 238.179 782.17 238.179C766.574 238.179 753.931 244.32 753.931 251.895C753.931 259.47 766.574 265.611 782.17 265.611Z" fill="#14B8A6"/>
<path d="M778.64 263.258C794.236 263.258 806.879 257.117 806.879 249.541C806.879 241.966 794.236 235.825 778.64 235.825C763.044 235.825 750.401 241.966 750.401 249.541C750.401 257.117 763.044 263.258 778.64 263.258Z" stroke="#3F3D56" stroke-miterlimit="10"/>
<path d="M776.287 136.182C791.883 136.182 804.526 130.041 804.526 122.466C804.526 114.891 791.883 108.75 776.287 108.75C760.691 108.75 748.048 114.891 748.048 122.466C748.048 130.041 760.691 136.182 776.287 136.182Z" fill="#14B8A6"/>
<path d="M772.757 133.829C788.353 133.829 800.996 127.688 800.996 120.112C800.996 112.537 788.353 106.396 772.757 106.396C757.161 106.396 744.518 112.537 744.518 120.112C744.518 127.688 757.161 133.829 772.757 133.829Z" stroke="#3F3D56" stroke-miterlimit="10"/>
<path d="M705.689 127.946C721.285 127.946 733.928 121.805 733.928 114.229C733.928 106.654 721.285 100.513 705.689 100.513C690.093 100.513 677.45 106.654 677.45 114.229C677.45 121.805 690.093 127.946 705.689 127.946Z" fill="#14B8A6"/>
<path d="M702.159 125.592C717.755 125.592 730.398 119.451 730.398 111.876C730.398 104.301 717.755 98.16 702.159 98.16C686.563 98.16 673.92 104.301 673.92 111.876C673.92 119.451 686.563 125.592 702.159 125.592Z" stroke="#3F3D56" stroke-miterlimit="10"/>
<path d="M737.458 98.5299C753.054 98.5299 765.697 92.389 765.697 84.8138C765.697 77.2386 753.054 71.0977 737.458 71.0977C721.862 71.0977 709.219 77.2386 709.219 84.8138C709.219 92.389 721.862 98.5299 737.458 98.5299Z" fill="#14B8A6"/>
<path d="M733.928 96.1766C749.524 96.1766 762.167 90.0357 762.167 82.4605C762.167 74.8853 749.524 68.7444 733.928 68.7444C718.332 68.7444 705.689 74.8853 705.689 82.4605C705.689 90.0357 718.332 96.1766 733.928 96.1766Z" stroke="#3F3D56" stroke-miterlimit="10"/>
<path d="M806.879 104.413C822.475 104.413 835.118 98.272 835.118 90.6968C835.118 83.1216 822.475 76.9807 806.879 76.9807C791.283 76.9807 778.64 83.1216 778.64 90.6968C778.64 98.272 791.283 104.413 806.879 104.413Z" fill="#14B8A6"/>
<path d="M803.349 102.06C818.945 102.06 831.588 95.9188 831.588 88.3436C831.588 80.7684 818.945 74.6274 803.349 74.6274C787.753 74.6274 775.11 80.7684 775.11 88.3436C775.11 95.9188 787.753 102.06 803.349 102.06Z" stroke="#3F3D56" stroke-miterlimit="10"/>
<path d="M858.651 143.242C874.247 143.242 886.89 137.101 886.89 129.526C886.89 121.95 874.247 115.809 858.651 115.809C843.055 115.809 830.412 121.95 830.412 129.526C830.412 137.101 843.055 143.242 858.651 143.242Z" fill="#14B8A6"/>
<path d="M855.121 140.888C870.717 140.888 883.36 134.747 883.36 127.172C883.36 119.597 870.717 113.456 855.121 113.456C839.525 113.456 826.882 119.597 826.882 127.172C826.882 134.747 839.525 140.888 855.121 140.888Z" stroke="#3F3D56" stroke-miterlimit="10"/>
<path d="M676.273 74.9973C691.869 74.9973 704.512 68.8564 704.512 61.2812C704.512 53.706 691.869 47.5651 676.273 47.5651C660.677 47.5651 648.034 53.706 648.034 61.2812C648.034 68.8564 660.677 74.9973 676.273 74.9973Z" fill="#14B8A6"/>
<path d="M672.743 72.644C688.339 72.644 700.982 66.5031 700.982 58.9279C700.982 51.3527 688.339 45.2118 672.743 45.2118C657.147 45.2118 644.504 51.3527 644.504 58.9279C644.504 66.5031 657.147 72.644 672.743 72.644Z" stroke="#3F3D56" stroke-miterlimit="10"/>
<path d="M693.923 30.2855C709.519 30.2855 722.162 24.1446 722.162 16.5694C722.162 8.99418 709.519 2.85327 693.923 2.85327C678.327 2.85327 665.684 8.99418 665.684 16.5694C665.684 24.1446 678.327 30.2855 693.923 30.2855Z" fill="#14B8A6"/>
<path d="M690.393 27.9322C705.989 27.9322 718.632 21.7913 718.632 14.2161C718.632 6.64091 705.989 0.5 690.393 0.5C674.797 0.5 662.154 6.64091 662.154 14.2161C662.154 21.7913 674.797 27.9322 690.393 27.9322Z" stroke="#3F3D56" stroke-miterlimit="10"/>
<path d="M857.474 63.231C873.07 63.231 885.713 57.0901 885.713 49.5149C885.713 41.9397 873.07 35.7988 857.474 35.7988C841.878 35.7988 829.235 41.9397 829.235 49.5149C829.235 57.0901 841.878 63.231 857.474 63.231Z" fill="#14B8A6"/>
<path d="M853.944 60.8778C869.54 60.8778 882.183 54.7369 882.183 47.1617C882.183 39.5865 869.54 33.4456 853.944 33.4456C838.348 33.4456 825.705 39.5865 825.705 47.1617C825.705 54.7369 838.348 60.8778 853.944 60.8778Z" stroke="#3F3D56" stroke-miterlimit="10"/>
<path d="M597.439 171.481C613.035 171.481 625.678 165.34 625.678 157.765C625.678 150.189 613.035 144.048 597.439 144.048C581.843 144.048 569.2 150.189 569.2 157.765C569.2 165.34 581.843 171.481 597.439 171.481Z" fill="#14B8A6"/>
<path d="M593.909 169.127C609.505 169.127 622.148 162.986 622.148 155.411C622.148 147.836 609.505 141.695 593.909 141.695C578.313 141.695 565.67 147.836 565.67 155.411C565.67 162.986 578.313 169.127 593.909 169.127Z" stroke="#3F3D56" stroke-miterlimit="10"/>
<path d="M695.099 164.421C710.695 164.421 723.338 158.28 723.338 150.705C723.338 143.13 710.695 136.989 695.099 136.989C679.503 136.989 666.86 143.13 666.86 150.705C666.86 158.28 679.503 164.421 695.099 164.421Z" fill="#14B8A6"/>
<path d="M691.57 162.068C707.166 162.068 719.809 155.927 719.809 148.352C719.809 140.776 707.166 134.635 691.57 134.635C675.974 134.635 663.331 140.776 663.331 148.352C663.331 155.927 675.974 162.068 691.57 162.068Z" stroke="#3F3D56" stroke-miterlimit="10"/>
<path d="M823.352 175.011C838.948 175.011 851.591 168.87 851.591 161.294C851.591 153.719 838.948 147.578 823.352 147.578C807.756 147.578 795.113 153.719 795.113 161.294C795.113 168.87 807.756 175.011 823.352 175.011Z" fill="#14B8A6"/>
<path d="M819.822 172.657C835.418 172.657 848.061 166.516 848.061 158.941C848.061 151.366 835.418 145.225 819.822 145.225C804.226 145.225 791.583 151.366 791.583 158.941C791.583 166.516 804.226 172.657 819.822 172.657Z" stroke="#3F3D56" stroke-miterlimit="10"/>
<path d="M755.107 179.717C770.703 179.717 783.346 173.576 783.346 166.001C783.346 158.426 770.703 152.285 755.107 152.285C739.511 152.285 726.868 158.426 726.868 166.001C726.868 173.576 739.511 179.717 755.107 179.717Z" fill="#14B8A6"/>
<path d="M751.577 177.364C767.173 177.364 779.816 171.223 779.816 163.648C779.816 156.073 767.173 149.932 751.577 149.932C735.981 149.932 723.338 156.073 723.338 163.648C723.338 171.223 735.981 177.364 751.577 177.364Z" stroke="#3F3D56" stroke-miterlimit="10"/>
<path d="M759.814 62.0544C775.41 62.0544 788.053 55.9135 788.053 48.3383C788.053 40.7631 775.41 34.6222 759.814 34.6222C744.218 34.6222 731.575 40.7631 731.575 48.3383C731.575 55.9135 744.218 62.0544 759.814 62.0544Z" fill="#14B8A6"/>
<path d="M756.284 59.7011C771.88 59.7011 784.523 53.5602 784.523 45.985C784.523 38.4098 771.88 32.2689 756.284 32.2689C740.688 32.2689 728.045 38.4098 728.045 45.985C728.045 53.5602 740.688 59.7011 756.284 59.7011Z" stroke="#3F3D56" stroke-miterlimit="10"/>
<path d="M638.621 135.005C654.217 135.005 666.86 128.864 666.86 121.289C666.86 113.714 654.217 107.573 638.621 107.573C623.025 107.573 610.382 113.714 610.382 121.289C610.382 128.864 623.025 135.005 638.621 135.005Z" fill="#14B8A6"/>
<path d="M635.092 132.652C650.688 132.652 663.331 126.511 663.331 118.936C663.331 111.361 650.688 105.22 635.092 105.22C619.496 105.22 606.853 111.361 606.853 118.936C606.853 126.511 619.496 132.652 635.092 132.652Z" stroke="#3F3D56" stroke-miterlimit="10"/>
<path d="M655.094 187.953C670.69 187.953 683.333 181.813 683.333 174.237C683.333 166.662 670.69 160.521 655.094 160.521C639.498 160.521 626.855 166.662 626.855 174.237C626.855 181.813 639.498 187.953 655.094 187.953Z" fill="#14B8A6"/>
<path d="M651.564 185.6C667.16 185.6 679.803 179.459 679.803 171.884C679.803 164.309 667.16 158.168 651.564 158.168C635.968 158.168 623.325 164.309 623.325 171.884C623.325 179.459 635.968 185.6 651.564 185.6Z" stroke="#3F3D56" stroke-miterlimit="10"/>
<g opacity="0.3">
<path d="M655.751 267.891C659.737 260.759 660.465 253.578 657.376 251.852C654.287 250.125 648.552 254.508 644.566 261.64C640.58 268.772 639.852 275.953 642.941 277.68C646.03 279.406 651.765 275.024 655.751 267.891Z" fill="#14B8A6"/>
<path d="M653.889 268.969C657.875 261.837 658.603 254.656 655.514 252.929C652.426 251.203 646.69 255.586 642.704 262.718C638.718 269.85 637.99 277.031 641.079 278.758C644.168 280.484 649.903 276.102 653.889 268.969Z" stroke="#3F3D56" stroke-miterlimit="10"/>
</g>
<g opacity="0.3">
<path d="M802.946 302.083C805.306 299.446 802.283 292.891 796.195 287.442C790.106 281.994 783.258 279.714 780.898 282.35C778.538 284.987 781.561 291.542 787.649 296.991C793.738 302.44 800.586 304.719 802.946 302.083Z" fill="#14B8A6"/>
<path d="M802.301 300.03C804.661 297.394 801.638 290.839 795.55 285.39C789.461 279.941 782.613 277.661 780.253 280.298C777.893 282.935 780.916 289.489 787.004 294.938C793.093 300.387 799.941 302.667 802.301 300.03Z" stroke="#3F3D56" stroke-miterlimit="10"/>
</g>
<g opacity="0.3">
<path d="M671.164 227.955C673.524 225.319 670.501 218.764 664.413 213.315C658.324 207.866 651.476 205.586 649.116 208.223C646.756 210.86 649.779 217.414 655.867 222.863C661.956 228.312 668.804 230.592 671.164 227.955Z" fill="#14B8A6"/>
<path d="M670.519 225.903C672.879 223.266 669.856 216.712 663.768 211.263C657.679 205.814 650.831 203.534 648.471 206.171C646.111 208.807 649.134 215.362 655.222 220.811C661.311 226.26 668.159 228.54 670.519 225.903Z" stroke="#3F3D56" stroke-miterlimit="10"/>
</g>
</g>
<defs>
<clipPath id="clip0_93_168">
<rect width="886" height="654.301" fill="white" transform="translate(0.889648)"/>
</clipPath>
</defs>
</svg>
