<svg width="820" height="611" viewBox="0 0 820 611" fill="none" xmlns="http://www.w3.org/2000/svg">
<g clip-path="url(#clip0_93_170)">
<path d="M278.882 428.707C314.272 428.707 342.962 400.017 342.962 364.626C342.962 329.236 314.272 300.546 278.882 300.546C243.491 300.546 214.801 329.236 214.801 364.626C214.801 400.017 243.491 428.707 278.882 428.707Z" fill="#34D399"/>
<path opacity="0.2" d="M231.567 321.826C225.589 335.808 224.778 351.459 229.279 365.984C233.779 380.509 243.298 392.96 256.134 401.113C268.969 409.266 284.286 412.589 299.346 410.488C314.406 408.388 328.229 401 338.344 389.647C334.692 398.189 329.227 405.835 322.328 412.056C315.428 418.277 307.258 422.923 298.384 425.673C289.51 428.422 280.145 429.21 270.937 427.981C261.728 426.752 252.897 423.535 245.055 418.555C237.213 413.574 230.548 406.947 225.521 399.135C220.494 391.322 217.226 382.51 215.943 373.309C214.66 364.108 215.393 354.738 218.091 345.849C220.788 336.959 225.386 328.762 231.567 321.826V321.826Z" fill="#0F172A"/>
<path d="M279.058 364.626H279.234L282.403 546.305H275.713L279.058 364.626Z" fill="#14B8A6"/>
<path d="M390.528 338.259C433.155 338.259 467.712 303.703 467.712 261.075C467.712 218.447 433.155 183.891 390.528 183.891C347.9 183.891 313.344 218.447 313.344 261.075C313.344 303.703 347.9 338.259 390.528 338.259Z" fill="#34D399"/>
<path opacity="0.2" d="M447.518 209.522C454.718 226.363 455.694 245.215 450.274 262.71C444.853 280.205 433.388 295.202 417.927 305.022C402.467 314.842 384.019 318.845 365.879 316.315C347.739 313.785 331.09 304.887 318.906 291.211C323.304 301.501 329.887 310.711 338.198 318.203C346.508 325.696 356.349 331.292 367.037 334.604C377.725 337.916 389.006 338.865 400.097 337.385C411.189 335.904 421.826 332.03 431.271 326.031C440.717 320.031 448.745 312.05 454.799 302.64C460.854 293.23 464.791 282.616 466.336 271.533C467.881 260.451 466.999 249.165 463.75 238.457C460.5 227.75 454.962 217.877 447.518 209.522V209.522Z" fill="#0F172A"/>
<path d="M390.316 261.075H390.104L386.287 479.905H394.345L390.316 261.075Z" fill="#14B8A6"/>
<path d="M247.244 188.776L257.724 180.394C249.583 179.496 246.237 183.936 244.868 187.451C238.508 184.81 231.584 188.271 231.584 188.271L252.552 195.883C251.495 193.058 249.653 190.592 247.244 188.776V188.776Z" fill="#14B8A6"/>
<path d="M220.827 116.449L231.307 108.067C223.166 107.169 219.821 111.609 218.452 115.123C212.091 112.482 205.167 115.943 205.167 115.943L226.136 123.556C225.078 120.73 223.236 118.265 220.827 116.449Z" fill="#14B8A6"/>
<path d="M369.286 163.211L379.765 154.829C371.624 153.931 368.279 158.371 366.91 161.886C360.55 159.245 353.626 162.706 353.626 162.706L374.594 170.318C373.536 167.493 371.695 165.027 369.286 163.211V163.211Z" fill="#14B8A6"/>
<path d="M358.93 479.57C358.93 479.57 359.331 471.168 367.551 472.144Z" fill="#14B8A6"/>
<path d="M414.77 479.57C414.77 479.57 415.171 471.168 423.392 472.144Z" fill="#14B8A6"/>
<path d="M398.511 479.57C398.511 479.57 398.912 471.168 407.133 472.144Z" fill="#14B8A6"/>
<path d="M343.972 479.57C343.972 479.57 343.571 471.168 335.351 472.144Z" fill="#14B8A6"/>
<path d="M378.812 480.151C378.812 480.151 378.412 471.748 370.191 472.725Z" fill="#14B8A6"/>
<path d="M250.93 545.57C250.93 545.57 251.331 537.168 259.551 538.144Z" fill="#14B8A6"/>
<path d="M306.77 545.57C306.77 545.57 307.171 537.168 315.392 538.144Z" fill="#14B8A6"/>
<path d="M290.511 545.57C290.511 545.57 290.912 537.168 299.133 538.144Z" fill="#14B8A6"/>
<path d="M235.972 545.57C235.972 545.57 235.571 537.168 227.351 538.144Z" fill="#14B8A6"/>
<path d="M270.813 546.151C270.813 546.151 270.412 537.748 262.191 538.725Z" fill="#14B8A6"/>
<path d="M674.637 151.705H567.182V161.28H674.637V151.705Z" fill="#0F172A"/>
<path d="M674.637 186.979H567.182V196.554H674.637V186.979Z" fill="#0F172A"/>
<path d="M674.637 218.578H567.182V228.154H674.637V218.578Z" fill="#0F172A"/>
<path d="M526.764 156.493C526.764 154.022 527.496 151.607 528.869 149.552C530.242 147.498 532.193 145.897 534.476 144.951C536.758 144.005 539.27 143.758 541.694 144.24C544.117 144.722 546.343 145.912 548.09 147.659C549.837 149.406 551.027 151.632 551.509 154.056C551.991 156.479 551.744 158.991 550.798 161.274C549.853 163.556 548.252 165.507 546.197 166.88C544.143 168.253 541.727 168.986 539.256 168.986V168.986C535.944 168.982 532.769 167.665 530.427 165.322C528.085 162.98 526.767 159.805 526.764 156.493V156.493Z" fill="#38BDF8"/>
<path d="M526.764 191.767C526.764 189.296 527.496 186.88 528.869 184.826C530.242 182.772 532.193 181.17 534.476 180.225C536.758 179.279 539.27 179.032 541.694 179.514C544.117 179.996 546.343 181.186 548.09 182.933C549.837 184.68 551.027 186.906 551.509 189.329C551.991 191.753 551.744 194.265 550.798 196.547C549.853 198.83 548.252 200.781 546.197 202.154C544.143 203.527 541.727 204.259 539.257 204.259C535.944 204.256 532.769 202.938 530.427 200.596C528.085 198.254 526.767 195.079 526.764 191.767V191.767Z" fill="#38BDF8"/>
<path d="M526.764 223.366C526.764 220.895 527.496 218.48 528.869 216.425C530.242 214.371 532.193 212.77 534.476 211.824C536.758 210.879 539.27 210.631 541.694 211.113C544.117 211.595 546.343 212.785 548.09 214.532C549.837 216.279 551.027 218.505 551.509 220.929C551.991 223.352 551.744 225.864 550.798 228.147C549.853 230.43 548.252 232.381 546.197 233.753C544.143 235.126 541.727 235.859 539.257 235.859V235.859C535.944 235.855 532.769 234.538 530.427 232.196C528.085 229.854 526.767 226.678 526.764 223.366V223.366Z" fill="#38BDF8"/>
<path d="M421.459 240.592L419.88 239.366L460.329 187.284H513.23V189.284H461.308L421.459 240.592Z" fill="#0F172A"/>
<path d="M107.456 265.705H0V275.28H107.456V265.705Z" fill="#0F172A"/>
<path d="M107.456 300.979H0V310.554H107.456V300.979Z" fill="#0F172A"/>
<path d="M107.456 332.578H0V342.154H107.456V332.578Z" fill="#0F172A"/>
<path d="M135.381 282.986C132.91 282.986 130.495 282.253 128.44 280.88C126.386 279.508 124.784 277.556 123.839 275.274C122.893 272.991 122.646 270.479 123.128 268.056C123.61 265.632 124.8 263.406 126.547 261.659C128.294 259.912 130.52 258.722 132.944 258.24C135.367 257.758 137.879 258.005 140.162 258.951C142.444 259.897 144.395 261.498 145.768 263.552C147.141 265.607 147.874 268.022 147.874 270.493C147.874 272.133 147.55 273.758 146.923 275.274C146.295 276.789 145.375 278.167 144.215 279.327C143.054 280.487 141.677 281.407 140.162 282.035C138.646 282.663 137.021 282.986 135.381 282.986Z" fill="#38BDF8"/>
<path d="M135.381 318.259C132.91 318.259 130.495 317.527 128.44 316.154C126.386 314.781 124.784 312.83 123.839 310.547C122.893 308.265 122.646 305.753 123.128 303.329C123.61 300.906 124.8 298.68 126.547 296.933C128.294 295.186 130.52 293.996 132.944 293.514C135.367 293.032 137.879 293.279 140.162 294.225C142.444 295.17 144.395 296.772 145.768 298.826C147.141 300.88 147.874 303.296 147.874 305.767C147.874 307.407 147.55 309.032 146.923 310.547C146.295 312.063 145.375 313.44 144.214 314.6C143.054 315.76 141.677 316.681 140.162 317.308C138.646 317.936 137.021 318.259 135.381 318.259H135.381Z" fill="#38BDF8"/>
<path d="M135.381 349.859C132.91 349.859 130.495 349.126 128.44 347.753C126.386 346.381 124.784 344.43 123.839 342.147C122.893 339.864 122.646 337.352 123.128 334.929C123.61 332.505 124.8 330.279 126.547 328.532C128.294 326.785 130.52 325.595 132.944 325.113C135.367 324.631 137.879 324.879 140.162 325.824C142.444 326.77 144.395 328.371 145.768 330.425C147.141 332.48 147.874 334.895 147.874 337.366C147.874 339.007 147.55 340.631 146.923 342.147C146.295 343.663 145.375 345.04 144.214 346.2C143.054 347.36 141.677 348.28 140.162 348.908C138.646 349.536 137.021 349.859 135.381 349.859H135.381Z" fill="#38BDF8"/>
<path d="M253.179 354.592L213.329 303.284H161.408V301.284H214.308L214.608 301.671L254.758 353.366L253.179 354.592Z" fill="#0F172A"/>
<path d="M480.637 7.7052H373.182V17.2805H480.637V7.7052Z" fill="#0F172A"/>
<path d="M480.637 42.979H373.182V52.5543H480.637V42.979Z" fill="#0F172A"/>
<path d="M480.637 74.5785H373.182V84.1538H480.637V74.5785Z" fill="#0F172A"/>
<path d="M332.764 12.4928C332.764 10.022 333.496 7.60662 334.869 5.55218C336.242 3.49775 338.193 1.89652 340.476 0.950972C342.758 0.00542122 345.27 -0.24199 347.694 0.24005C350.117 0.722089 352.343 1.91192 354.09 3.65907C355.837 5.40622 357.027 7.63223 357.509 10.0556C357.991 12.479 357.744 14.9909 356.798 17.2736C355.853 19.5564 354.252 21.5075 352.197 22.8802C350.143 24.2529 347.727 24.9856 345.256 24.9856V24.9856C341.944 24.9819 338.769 23.6645 336.427 21.3225C334.085 18.9804 332.767 15.805 332.764 12.4928V12.4928Z" fill="#38BDF8"/>
<path d="M332.764 47.7666C332.764 45.2958 333.496 42.8804 334.869 40.826C336.242 38.7716 338.193 37.1703 340.476 36.2248C342.758 35.2792 345.27 35.0318 347.694 35.5139C350.117 35.9959 352.343 37.1857 354.09 38.9329C355.837 40.68 357.027 42.906 357.509 45.3294C357.991 47.7527 357.744 50.2646 356.798 52.5474C355.853 54.8302 354.252 56.7813 352.197 58.154C350.143 59.5267 347.727 60.2594 345.257 60.2594V60.2594C341.944 60.2557 338.769 58.9384 336.427 56.5963C334.085 54.2543 332.767 51.0788 332.764 47.7666Z" fill="#38BDF8"/>
<path d="M332.764 79.3661C332.764 76.8953 333.496 74.4799 334.869 72.4255C336.242 70.3711 338.193 68.7698 340.476 67.8243C342.758 66.8787 345.27 66.6313 347.694 67.1133C350.117 67.5954 352.343 68.7852 354.09 70.5323C355.837 72.2795 357.027 74.5055 357.509 76.9289C357.991 79.3522 357.744 81.8641 356.798 84.1469C355.853 86.4297 354.252 88.3808 352.197 89.7535C350.143 91.1262 347.727 91.8589 345.257 91.8589C341.944 91.8552 338.769 90.5379 336.427 88.1958C334.085 85.8537 332.767 82.6783 332.764 79.3661V79.3661Z" fill="#38BDF8"/>
<path d="M227.459 96.5921L225.88 95.3661L266.329 43.2841H319.23V45.2841H267.308L227.459 96.5921Z" fill="#0F172A"/>
<path d="M737.107 603.48H730.358L727.147 577.445H737.109L737.107 603.48Z" fill="#FFB7B7"/>
<path d="M738.829 610.023L717.065 610.023V609.747C717.065 607.501 717.958 605.346 719.546 603.757C721.135 602.169 723.29 601.276 725.536 601.276H725.537L738.83 601.277L738.829 610.023Z" fill="#0F172A"/>
<path d="M708.107 603.48H701.358L698.147 577.445H708.109L708.107 603.48Z" fill="#FFB7B7"/>
<path d="M709.829 610.023L688.065 610.023V609.747C688.065 607.501 688.958 605.346 690.546 603.757C692.135 602.169 694.29 601.276 696.536 601.276H696.537L709.83 601.277L709.829 610.023Z" fill="#0F172A"/>
<path d="M692.742 432.672L683.596 447.216L698.948 593.974L714.992 594.945L718.366 468.193L723.992 535.945L721.769 594.945L738.287 595.746L748.102 510.146L755.492 442.445L740.992 428.945L692.742 432.672Z" fill="#0F172A"/>
<path d="M735.492 321.445L710.492 322.445L687.327 436.728C687.327 436.728 724.981 455.413 740.236 438.429L749.405 431.712L735.492 321.445Z" fill="#38BDF8"/>
<path d="M735.492 321.445L757.492 334.267L749.364 387.945L756.491 442.677L733.344 438.904C733.344 438.904 728.604 387.945 731.68 371.945C734.756 355.945 735.492 321.445 735.492 321.445Z" fill="#0F172A"/>
<path d="M710.492 322.445L684.167 335.956L686.172 395.404L672.586 440.444C672.586 440.444 699.677 449.113 704.334 435.529C708.992 421.945 710.492 322.445 710.492 322.445Z" fill="#0F172A"/>
<path d="M746.044 456.221C746.922 455.793 747.695 455.177 748.309 454.418C748.924 453.659 749.364 452.774 749.599 451.826C749.835 450.878 749.859 449.89 749.672 448.932C749.484 447.973 749.088 447.068 748.513 446.278L756.458 433.241L749.713 426.481L738.752 445.049C737.49 446.104 736.659 447.585 736.417 449.212C736.174 450.838 736.537 452.497 737.436 453.874C738.334 455.251 739.707 456.251 741.294 456.683C742.88 457.116 744.57 456.951 746.044 456.221V456.221Z" fill="#FFB7B7"/>
<path d="M746.075 341.579L756.563 333.267C756.563 333.267 766.481 341.384 766.236 349.165C765.992 356.945 768.962 398.392 768.962 398.392L752.594 447.656L740.405 437.904L754.683 399.445L743.432 366.628L746.075 341.579Z" fill="#0F172A"/>
<path d="M698.594 458.381C697.785 457.834 697.106 457.115 696.605 456.277C696.103 455.439 695.792 454.501 695.692 453.529C695.593 452.558 695.707 451.576 696.028 450.654C696.349 449.731 696.868 448.89 697.549 448.19L691.519 434.164L699.149 428.421L707.386 448.348C708.487 449.57 709.101 451.153 709.112 452.797C709.123 454.442 708.53 456.033 707.447 457.27C706.363 458.506 704.863 459.303 703.231 459.508C701.6 459.712 699.95 459.311 698.594 458.381V458.381Z" fill="#FFB7B7"/>
<path d="M694.379 345.038L685.166 335.332C685.166 335.332 674.204 341.972 673.35 349.709C672.497 357.447 663.72 398.063 663.72 398.063L672.988 449.14L686.429 441.202L677.708 401.116L693.468 370.209L694.379 345.038Z" fill="#0F172A"/>
<path d="M723.789 313.975C733.22 313.975 740.865 306.33 740.865 296.9C740.865 287.469 733.22 279.824 723.789 279.824C714.359 279.824 706.714 287.469 706.714 296.9C706.714 306.33 714.359 313.975 723.789 313.975Z" fill="#FFB7B7"/>
<path d="M719.66 281.737C717.936 281.433 716.229 282.217 714.632 282.933C713.034 283.649 711.248 284.327 709.574 283.815C708.802 283.523 708.111 283.051 707.558 282.438C707.006 281.825 706.607 281.089 706.396 280.291C705.99 278.693 705.845 277.04 705.966 275.395L707.784 276.446L706.542 274.358L724.262 272.4C729.623 271.807 735.635 271.394 739.805 274.815C741.93 276.745 743.478 279.227 744.275 281.985C747.812 292.814 751.829 308.593 733.673 311.812C731.142 311.112 735.269 301.797 735.227 299.171C735.185 296.546 733.741 293.595 731.146 293.192L729.246 295.834C730.462 294.143 726.146 288.652 725.072 287.58C724.107 286.762 723.236 285.838 722.475 284.826C721.617 283.512 721.607 282.081 719.66 281.737Z" fill="#0F172A"/>
<path d="M798 610.445H619C618.735 610.445 618.48 610.34 618.293 610.152C618.105 609.965 618 609.71 618 609.445C618 609.18 618.105 608.925 618.293 608.738C618.48 608.55 618.735 608.445 619 608.445H798C798.265 608.445 798.52 608.55 798.707 608.738C798.895 608.925 799 609.18 799 609.445C799 609.71 798.895 609.965 798.707 610.152C798.52 610.34 798.265 610.445 798 610.445Z" fill="#14B8A6"/>
</g>
<defs>
<clipPath id="clip0_93_170">
<rect width="819.327" height="610.284" fill="white"/>
</clipPath>
</defs>
</svg>
