<svg width="46" height="46" viewBox="0.41071510314941406 0.000003814697265625 45.17856979370117 45.99999237060547" fill="none" xmlns="http://www.w3.org/2000/svg">
<path d="M45.1786 23.0133C38.703 23.0133 40.8418 18.5556 34.7486 11.9785C28.6553 5.40139 18.8402 4.95774 12.0447 11.4702C5.03008 18.1927 6.30269 28.6119 11.5181 34.2415C16.7335 39.871 21.8376 39.0051 21.8376 39.0051C24.1151 33.9813 11.1053 27.4206 17.1448 21.6325C23.0871 16.186 21.2587 12.4049 22.5539 12.0436C25.9503 11.0962 31.8447 20.6353 31.8447 25.3147C31.8447 28.6491 25.8271 34.1487 25.8271 38.7513C25.8271 43.354 26.4295 45.5673 26.4295 45.5673C14.0807 48.2477 0 38.2021 0 23.0133C0 10.3034 10.2326 0 22.855 0C35.4775 0 45.1786 10.6451 45.1786 23.0133Z" fill="#34D399" stroke="#FAFAFA" stroke-width="2"/>
</svg>
