<svg width="23" height="23" viewBox="3.8240418434143066 3.1462316513061523 15.351916313171387 16.707536697387695" fill="none" xmlns="http://www.w3.org/2000/svg">
<path d="M6.48168 9.3166C12.0853 4.33722 10.9278 0.871737 11.7849 0C16.0168 6.81038 16.8161 10.4564 12.642 14.0566C8.8408 17.3352 9.24389 20.0034 9.97837 21.545C10.2514 21.9433 10.4887 22.3237 10.673 22.6824C10.8183 22.8852 10.8936 22.9918 10.8207 22.9918C10.7763 22.8906 10.7269 22.7874 10.673 22.6824C10.4975 22.4374 10.22 22.0522 9.97837 21.545C7.5336 17.9795 2.2221 12.9824 6.48168 9.3166Z" fill="#60A5FA"/>
<path d="M6.48168 9.3166L7.12604 10.0911L7.13207 10.0859L7.13801 10.0806L6.48168 9.3166ZM11.7849 0L12.6282 -0.542037C12.4662 -0.80265 12.1966 -0.974234 11.8953 -1.00835C11.5941 -1.04247 11.2939 -0.935411 11.0796 -0.71741L11.7849 0ZM10.8207 22.9918L9.90971 23.4052L10.1734 24.0064H10.8207L10.8207 22.9918ZM12.642 14.0566L13.2872 14.8304L12.642 14.0566ZM7.13801 10.0806C10.0633 7.48122 11.282 5.21972 11.8606 3.43578C12.144 2.56203 12.2665 1.82052 12.3622 1.31533C12.4126 1.04962 12.4492 0.8835 12.4876 0.765973C12.5255 0.649762 12.5387 0.668218 12.4903 0.71741L11.0796 -0.71741C10.8169 -0.450284 10.6788 -0.132839 10.5941 0.126775C10.5098 0.385073 10.4524 0.671615 10.4032 0.931181C10.2998 1.47655 10.2007 2.07608 9.96592 2.80009C9.50808 4.21166 8.50366 6.1726 5.82536 8.55255L7.13801 10.0806ZM11.7317 22.5785C11.678 22.456 11.6194 22.3339 11.5571 22.2126L9.78876 23.1521C9.83436 23.2409 9.87463 23.3252 9.90971 23.4052L11.7317 22.5785ZM11.5571 22.2126C11.346 21.8016 11.083 21.3823 10.7966 20.9647L9.16014 22.1254C9.41992 22.5042 9.63144 22.8458 9.78876 23.1521L11.5571 22.2126ZM10.7966 20.9647C10.1687 20.0489 9.33861 19.0159 8.59293 18.0279C7.8239 17.0089 7.10894 15.9938 6.6009 15.0003C6.08981 14.0008 5.83583 13.1132 5.8829 12.3347C5.92712 11.6032 6.2435 10.8506 7.12604 10.0911L5.83733 8.54208C4.59008 9.61547 3.97305 10.8622 3.89157 12.2101C3.81293 13.511 4.24095 14.7829 4.83089 15.9365C5.42387 17.0962 6.22895 18.2281 7.01032 19.2634C7.81502 20.3296 8.56567 21.2584 9.16014 22.1254L10.7966 20.9647ZM10.9417 0.542037C13.0588 3.94912 14.1904 6.38054 14.3727 8.32825C14.4606 9.26772 14.3255 10.0882 13.9631 10.8637C13.5952 11.6513 12.968 12.4452 11.9968 13.2828L13.2872 14.8304C14.4031 13.868 15.2413 12.856 15.7652 11.7346C16.2947 10.6011 16.4779 9.40939 16.3588 8.13602C16.1269 5.65806 14.7429 2.86126 12.6282 -0.542037L10.9417 0.542037ZM11.9968 13.2828C9.98401 15.0189 8.98 16.6843 8.63638 18.2282C8.29086 19.7806 8.64398 21.0709 9.08067 21.9875L10.8761 21.1026C10.5783 20.4775 10.3626 19.6629 10.5822 18.6762C10.8038 17.6809 11.4988 16.3729 13.2872 14.8304L11.9968 13.2828ZM9.08067 21.9875C9.36474 22.5837 9.68969 23.0327 9.86671 23.2798L11.4792 22.0849C11.3053 21.8421 11.0753 21.5207 10.8761 21.1026L9.08067 21.9875ZM9.86671 23.2798C9.95938 23.4092 9.96426 23.4202 9.95287 23.3989C9.94612 23.3863 9.92465 23.3456 9.90376 23.2854C9.88747 23.2386 9.84024 23.0944 9.85376 22.9003C9.87029 22.663 9.98185 22.3611 10.2676 22.1568C10.5035 21.9882 10.7359 21.9773 10.8207 21.9773L10.8207 24.0064C10.9238 24.0064 11.1697 23.9922 11.4149 23.8169C11.7099 23.606 11.8264 23.2942 11.8439 23.0437C11.8583 22.8365 11.808 22.6759 11.7849 22.6094C11.7571 22.5296 11.7251 22.466 11.7044 22.4274C11.6373 22.3021 11.5318 22.1584 11.4792 22.0849L9.86671 23.2798Z" fill="#F8FAFC"/>
</svg>
